<svg width="1100" height="380" viewBox="0 0 1100 380" xmlns="http://www.w3.org/2000/svg" shape-rendering="crispEdges">
  <defs>
    <linearGradient id="bg" x1="0" y1="0" x2="1" y2="1">
      <stop offset="0" stop-color="#0d1117"/><stop offset="1" stop-color="#161b22"/>
    </linearGradient>
  </defs>
  <rect width="1100" height="380" rx="32" fill="url(#bg)"/>
  <rect x="2" y="2" width="1096" height="376" rx="31" fill="none" stroke="#21262d" stroke-width="3"/>
  <circle cx="38" cy="38" r="7.5" fill="#ff5f56"/>
  <circle cx="63" cy="38" r="7.5" fill="#ffbd2e"/>
  <circle cx="88" cy="38" r="7.5" fill="#27c93f"/>

  <!-- ===== Sparky (single-colour pixel budgie) ===== -->
  <rect x="162.0" y="98.0" width="12.6" height="12.6" fill="#FFC61A"/>
  <rect x="174.0" y="98.0" width="12.6" height="12.6" fill="#FFC61A"/>
  <rect x="150.0" y="110.0" width="12.6" height="12.6" fill="#FFC61A"/>
  <rect x="162.0" y="110.0" width="12.6" height="12.6" fill="#FFC61A"/>
  <rect x="174.0" y="110.0" width="12.6" height="12.6" fill="#FFC61A"/>
  <rect x="186.0" y="110.0" width="12.6" height="12.6" fill="#FFC61A"/>
  <rect x="126.0" y="122.0" width="12.6" height="12.6" fill="#FFC61A"/>
  <rect x="138.0" y="122.0" width="12.6" height="12.6" fill="#FFC61A"/>
  <rect x="150.0" y="122.0" width="12.6" height="12.6" fill="#FFC61A"/>
  <rect x="162.0" y="122.0" width="12.6" height="12.6" fill="#FFC61A"/>
  <rect x="174.0" y="122.0" width="12.6" height="12.6" fill="#FFC61A"/>
  <rect x="186.0" y="122.0" width="12.6" height="12.6" fill="#FFC61A"/>
  <rect x="198.0" y="122.0" width="12.6" height="12.6" fill="#FFC61A"/>
  <rect x="210.0" y="122.0" width="12.6" height="12.6" fill="#FFC61A"/>
  <rect x="114.0" y="134.0" width="12.6" height="12.6" fill="#FFC61A"/>
  <rect x="126.0" y="134.0" width="12.6" height="12.6" fill="#FFC61A"/>
  <rect x="138.0" y="134.0" width="12.6" height="12.6" fill="#FFC61A"/>
  <rect x="150.0" y="134.0" width="12.6" height="12.6" fill="#FFC61A"/>
  <rect x="162.0" y="134.0" width="12.6" height="12.6" fill="#FFC61A"/>
  <rect x="174.0" y="134.0" width="12.6" height="12.6" fill="#FFC61A"/>
  <rect x="186.0" y="134.0" width="12.6" height="12.6" fill="#FFC61A"/>
  <rect x="198.0" y="134.0" width="12.6" height="12.6" fill="#FFC61A"/>
  <rect x="210.0" y="134.0" width="12.6" height="12.6" fill="#FFC61A"/>
  <rect x="222.0" y="134.0" width="12.6" height="12.6" fill="#FFC61A"/>
  <rect x="102.0" y="146.0" width="12.6" height="12.6" fill="#FFC61A"/>
  <rect x="114.0" y="146.0" width="12.6" height="12.6" fill="#FFC61A"/>
  <rect x="126.0" y="146.0" width="12.6" height="12.6" fill="#FFC61A"/>
  <rect x="138.0" y="146.0" width="12.6" height="12.6" fill="#FFC61A"/>
  <rect x="150.0" y="146.0" width="12.6" height="12.6" fill="#FFC61A"/>
  <rect x="162.0" y="146.0" width="12.6" height="12.6" fill="#FFC61A"/>
  <rect x="174.0" y="146.0" width="12.6" height="12.6" fill="#FFC61A"/>
  <rect x="186.0" y="146.0" width="12.6" height="12.6" fill="#FFC61A"/>
  <rect x="198.0" y="146.0" width="12.6" height="12.6" fill="#FFC61A"/>
  <rect x="210.0" y="146.0" width="12.6" height="12.6" fill="#FFC61A"/>
  <rect x="222.0" y="146.0" width="12.6" height="12.6" fill="#FFC61A"/>
  <rect x="234.0" y="146.0" width="12.6" height="12.6" fill="#FFC61A"/>
  <rect x="102.0" y="158.0" width="12.6" height="12.6" fill="#FFC61A"/>
  <rect x="114.0" y="158.0" width="12.6" height="12.6" fill="#FFC61A"/>
  <rect x="126.0" y="158.0" width="12.6" height="12.6" fill="#1A1A1A"/>
  <rect x="138.0" y="158.0" width="12.6" height="12.6" fill="#1A1A1A"/>
  <rect x="150.0" y="158.0" width="12.6" height="12.6" fill="#FFC61A"/>
  <rect x="162.0" y="158.0" width="12.6" height="12.6" fill="#FFC61A"/>
  <rect x="174.0" y="158.0" width="12.6" height="12.6" fill="#FFC61A"/>
  <rect x="186.0" y="158.0" width="12.6" height="12.6" fill="#FFC61A"/>
  <rect x="198.0" y="158.0" width="12.6" height="12.6" fill="#1A1A1A"/>
  <rect x="210.0" y="158.0" width="12.6" height="12.6" fill="#1A1A1A"/>
  <rect x="222.0" y="158.0" width="12.6" height="12.6" fill="#FFC61A"/>
  <rect x="234.0" y="158.0" width="12.6" height="12.6" fill="#FFC61A"/>
  <rect x="102.0" y="170.0" width="12.6" height="12.6" fill="#FFC61A"/>
  <rect x="114.0" y="170.0" width="12.6" height="12.6" fill="#FFC61A"/>
  <rect x="126.0" y="170.0" width="12.6" height="12.6" fill="#1A1A1A"/>
  <rect x="138.0" y="170.0" width="12.6" height="12.6" fill="#1A1A1A"/>
  <rect x="150.0" y="170.0" width="12.6" height="12.6" fill="#FFC61A"/>
  <rect x="162.0" y="170.0" width="12.6" height="12.6" fill="#FFC61A"/>
  <rect x="174.0" y="170.0" width="12.6" height="12.6" fill="#FFC61A"/>
  <rect x="186.0" y="170.0" width="12.6" height="12.6" fill="#FFC61A"/>
  <rect x="198.0" y="170.0" width="12.6" height="12.6" fill="#1A1A1A"/>
  <rect x="210.0" y="170.0" width="12.6" height="12.6" fill="#1A1A1A"/>
  <rect x="222.0" y="170.0" width="12.6" height="12.6" fill="#FFC61A"/>
  <rect x="234.0" y="170.0" width="12.6" height="12.6" fill="#FFC61A"/>
  <rect x="102.0" y="182.0" width="12.6" height="12.6" fill="#FFC61A"/>
  <rect x="114.0" y="182.0" width="12.6" height="12.6" fill="#FFC61A"/>
  <rect x="126.0" y="182.0" width="12.6" height="12.6" fill="#FFC61A"/>
  <rect x="138.0" y="182.0" width="12.6" height="12.6" fill="#FFC61A"/>
  <rect x="150.0" y="182.0" width="12.6" height="12.6" fill="#FFC61A"/>
  <rect x="162.0" y="182.0" width="12.6" height="12.6" fill="#FFC61A"/>
  <rect x="174.0" y="182.0" width="12.6" height="12.6" fill="#FFC61A"/>
  <rect x="186.0" y="182.0" width="12.6" height="12.6" fill="#FFC61A"/>
  <rect x="198.0" y="182.0" width="12.6" height="12.6" fill="#FFC61A"/>
  <rect x="210.0" y="182.0" width="12.6" height="12.6" fill="#FFC61A"/>
  <rect x="222.0" y="182.0" width="12.6" height="12.6" fill="#FFC61A"/>
  <rect x="234.0" y="182.0" width="12.6" height="12.6" fill="#FFC61A"/>
  <rect x="102.0" y="194.0" width="12.6" height="12.6" fill="#FFC61A"/>
  <rect x="114.0" y="194.0" width="12.6" height="12.6" fill="#FFC61A"/>
  <rect x="126.0" y="194.0" width="12.6" height="12.6" fill="#FFC61A"/>
  <rect x="138.0" y="194.0" width="12.6" height="12.6" fill="#FFC61A"/>
  <rect x="150.0" y="194.0" width="12.6" height="12.6" fill="#FFC61A"/>
  <rect x="162.0" y="194.0" width="12.6" height="12.6" fill="#FFC61A"/>
  <rect x="174.0" y="194.0" width="12.6" height="12.6" fill="#FFC61A"/>
  <rect x="186.0" y="194.0" width="12.6" height="12.6" fill="#FFC61A"/>
  <rect x="198.0" y="194.0" width="12.6" height="12.6" fill="#FFC61A"/>
  <rect x="210.0" y="194.0" width="12.6" height="12.6" fill="#FFC61A"/>
  <rect x="222.0" y="194.0" width="12.6" height="12.6" fill="#FFC61A"/>
  <rect x="234.0" y="194.0" width="12.6" height="12.6" fill="#FFC61A"/>
  <rect x="102.0" y="206.0" width="12.6" height="12.6" fill="#FFC61A"/>
  <rect x="114.0" y="206.0" width="12.6" height="12.6" fill="#FFC61A"/>
  <rect x="126.0" y="206.0" width="12.6" height="12.6" fill="#FFC61A"/>
  <rect x="138.0" y="206.0" width="12.6" height="12.6" fill="#FFC61A"/>
  <rect x="150.0" y="206.0" width="12.6" height="12.6" fill="#FFC61A"/>
  <rect x="162.0" y="206.0" width="12.6" height="12.6" fill="#FFC61A"/>
  <rect x="174.0" y="206.0" width="12.6" height="12.6" fill="#FFC61A"/>
  <rect x="186.0" y="206.0" width="12.6" height="12.6" fill="#FFC61A"/>
  <rect x="198.0" y="206.0" width="12.6" height="12.6" fill="#FFC61A"/>
  <rect x="210.0" y="206.0" width="12.6" height="12.6" fill="#FFC61A"/>
  <rect x="222.0" y="206.0" width="12.6" height="12.6" fill="#FFC61A"/>
  <rect x="234.0" y="206.0" width="12.6" height="12.6" fill="#FFC61A"/>
  <rect x="114.0" y="218.0" width="12.6" height="12.6" fill="#FFC61A"/>
  <rect x="126.0" y="218.0" width="12.6" height="12.6" fill="#FFC61A"/>
  <rect x="138.0" y="218.0" width="12.6" height="12.6" fill="#FFC61A"/>
  <rect x="150.0" y="218.0" width="12.6" height="12.6" fill="#FFC61A"/>
  <rect x="162.0" y="218.0" width="12.6" height="12.6" fill="#FFC61A"/>
  <rect x="174.0" y="218.0" width="12.6" height="12.6" fill="#FFC61A"/>
  <rect x="186.0" y="218.0" width="12.6" height="12.6" fill="#FFC61A"/>
  <rect x="198.0" y="218.0" width="12.6" height="12.6" fill="#FFC61A"/>
  <rect x="210.0" y="218.0" width="12.6" height="12.6" fill="#FFC61A"/>
  <rect x="222.0" y="218.0" width="12.6" height="12.6" fill="#FFC61A"/>
  <rect x="114.0" y="230.0" width="12.6" height="12.6" fill="#FFC61A"/>
  <rect x="126.0" y="230.0" width="12.6" height="12.6" fill="#FFC61A"/>
  <rect x="138.0" y="230.0" width="12.6" height="12.6" fill="#FFC61A"/>
  <rect x="150.0" y="230.0" width="12.6" height="12.6" fill="#FFC61A"/>
  <rect x="162.0" y="230.0" width="12.6" height="12.6" fill="#FFC61A"/>
  <rect x="174.0" y="230.0" width="12.6" height="12.6" fill="#FFC61A"/>
  <rect x="186.0" y="230.0" width="12.6" height="12.6" fill="#FFC61A"/>
  <rect x="198.0" y="230.0" width="12.6" height="12.6" fill="#FFC61A"/>
  <rect x="210.0" y="230.0" width="12.6" height="12.6" fill="#FFC61A"/>
  <rect x="222.0" y="230.0" width="12.6" height="12.6" fill="#FFC61A"/>
  <rect x="126.0" y="242.0" width="12.6" height="12.6" fill="#FFC61A"/>
  <rect x="138.0" y="242.0" width="12.6" height="12.6" fill="#FFC61A"/>
  <rect x="150.0" y="242.0" width="12.6" height="12.6" fill="#FFC61A"/>
  <rect x="162.0" y="242.0" width="12.6" height="12.6" fill="#FFC61A"/>
  <rect x="174.0" y="242.0" width="12.6" height="12.6" fill="#FFC61A"/>
  <rect x="186.0" y="242.0" width="12.6" height="12.6" fill="#FFC61A"/>
  <rect x="198.0" y="242.0" width="12.6" height="12.6" fill="#FFC61A"/>
  <rect x="210.0" y="242.0" width="12.6" height="12.6" fill="#FFC61A"/>
  <rect x="126.0" y="254.0" width="12.6" height="12.6" fill="#FFC61A"/>
  <rect x="138.0" y="254.0" width="12.6" height="12.6" fill="#FFC61A"/>
  <rect x="198.0" y="254.0" width="12.6" height="12.6" fill="#FFC61A"/>
  <rect x="210.0" y="254.0" width="12.6" height="12.6" fill="#FFC61A"/>

  <!-- speech bubble -->
  <g transform="translate(322,70)" font-family="DejaVu Sans Mono, monospace">
    <rect x="0" y="0" width="262" height="72" rx="16" fill="#1f2937" stroke="#FFC61A" stroke-width="2.5"/>
    <path d="M26 72 l -18 30 l 42 -30 z" fill="#1f2937"/>
    <path d="M26 72 l -18 30 l 42 -30" fill="none" stroke="#FFC61A" stroke-width="2.5"/>
    <text x="22" y="33" font-size="19" fill="#fde68a">plug me in &#8212;</text>
    <text x="22" y="57" font-size="19" font-weight="bold" fill="#FFC61A">copilot anywhere</text>
  </g>

  <!-- wordmark -->
  <text x="404" y="214" font-family="DejaVu Sans, Verdana, sans-serif" font-weight="bold" font-size="62" fill="#e6edf3">Sparky</text>
  <text x="406" y="252" font-family="DejaVu Sans Mono, monospace" font-size="18" fill="#9aa4b0">portable copilot &#183; fully local &#183; qwen &#183; on any USB</text>

  <g transform="translate(406,276)" font-family="DejaVu Sans Mono, monospace">
    <rect x="0" y="0" width="140" height="40" rx="9" fill="#161b22" stroke="#30363d" stroke-width="2"/>
    <circle cx="22" cy="20" r="6" fill="#34d399"/>
    <text x="38" y="27" font-size="17" fill="#9fb0c0">fast &#8596; max</text>
  </g>
  <g transform="translate(560,276)" font-family="DejaVu Sans Mono, monospace">
    <rect x="0" y="0" width="200" height="40" rx="9" fill="#161b22" stroke="#30363d" stroke-width="2"/>
    <circle cx="22" cy="20" r="6" fill="#FFC61A"/>
    <text x="38" y="27" font-size="17" fill="#9fb0c0">qwen local</text>
  </g>
</svg>
